ground reactions
version=1
nRows=33
nColumns=19
inDegrees=no
endheader
time	ground_force_l_vx	ground_force_l_vy	ground_force_l_vz	ground_force_l_px	ground_force_l_py	ground_force_l_pz	ground_torque_l_x	ground_torque_l_y	ground_torque_l_z	ground_force_r_vx	ground_force_r_vy	ground_force_r_vz	ground_force_r_px	ground_force_r_py	ground_force_r_pz	ground_torque_r_x	ground_torque_r_y	ground_torque_r_z
3.400000	0.000000	0.000000	0.000000	0.000000	0.000000	-0.000000	0.000000	0.000000	0.000000	-50.601505	626.165349	-27.589250	0.977817	0.000000	-0.416051	0.000000	0.529909	0.000000
3.401042	0.000000	0.000000	0.000000	0.000000	0.000000	-0.000000	0.000000	0.000000	0.000000	-50.164512	624.931401	-27.749156	0.977011	0.000000	-0.415997	0.000000	0.535861	0.000000
3.402083	0.000000	0.000000	0.000000	0.000000	0.000000	-0.000000	0.000000	0.000000	0.000000	-49.729236	623.721660	-27.913898	0.976206	0.000000	-0.415946	0.000000	0.540850	0.000000
3.403125	0.000000	0.000000	0.000000	-0.000000	-0.000000	0.000000	0.000000	0.000000	0.000000	-49.295208	622.537648	-28.081930	0.975400	0.000000	-0.415894	0.000000	0.544913	0.000000
3.404167	0.000000	0.000000	0.000000	-0.000000	-0.000000	0.000000	0.000000	0.000000	0.000000	-48.861997	621.380902	-28.251673	0.974591	0.000000	-0.415842	0.000000	0.548093	0.000000
3.405208	0.000000	0.000000	0.000000	-0.000000	-0.000000	0.000000	0.000000	0.000000	0.000000	-48.429211	620.252957	-28.421541	0.973777	0.000000	-0.415789	0.000000	0.550440	0.000000
3.406250	0.000000	0.000000	0.000000	-0.000000	-0.000000	0.000000	0.000000	0.000000	0.000000	-47.996511	619.155324	-28.589963	0.972956	0.000000	-0.415732	0.000000	0.552013	0.000000
3.407292	0.000000	0.000000	0.000000	-0.000000	-0.000000	0.000000	0.000000	0.000000	0.000000	-47.563610	618.089471	-28.755411	0.972125	0.000000	-0.415671	0.000000	0.552873	0.000000
3.408333	0.000000	0.000000	0.000000	-0.000000	-0.000000	0.000000	0.000000	0.000000	0.000000	-47.130277	617.056804	-28.916420	0.971283	0.000000	-0.415606	0.000000	0.553091	0.000000
3.409375	0.000000	0.000000	0.000000	-0.000000	-0.000000	0.000000	0.000000	0.000000	0.000000	-46.696342	616.058652	-29.071611	0.970429	0.000000	-0.415535	0.000000	0.552740	0.000000
3.410417	0.000000	0.000000	0.000000	-0.000000	-0.000000	0.000000	0.000000	0.000000	0.000000	-46.261697	615.096248	-29.219707	0.969561	0.000000	-0.415459	0.000000	0.551898	0.000000
3.411458	0.000000	0.000000	0.000000	-0.000000	-0.000000	0.000000	0.000000	0.000000	0.000000	-45.826297	614.170716	-29.359548	0.968677	0.000000	-0.415376	0.000000	0.550646	0.000000
3.412500	0.000000	0.000000	0.000000	-0.000000	-0.000000	0.000000	0.000000	0.000000	0.000000	-45.390155	613.283058	-29.490108	0.967777	0.000000	-0.415288	0.000000	0.549070	0.000000
3.413542	0.000000	0.000000	0.000000	0.000000	0.000000	-0.000000	0.000000	0.000000	0.000000	-44.953346	612.434144	-29.610501	0.966861	0.000000	-0.415194	0.000000	0.547256	0.000000
3.414583	0.000000	0.000000	0.000000	0.000000	0.000000	-0.000000	0.000000	0.000000	0.000000	-44.515999	611.624703	-29.719990	0.965927	0.000000	-0.415095	0.000000	0.545294	0.000000
3.415625	0.000000	0.000000	0.000000	0.000000	0.000000	-0.000000	0.000000	0.000000	0.000000	-44.078295	610.855321	-29.817988	0.964977	0.000000	-0.414991	0.000000	0.543273	0.000000
3.416667	0.000000	0.000000	0.000000	0.000000	0.000000	-0.000000	0.000000	0.000000	0.000000	-43.640460	610.126430	-29.904063	0.964009	0.000000	-0.414883	0.000000	0.541283	0.000000
3.417708	0.000000	0.000000	0.000000	0.000000	0.000000	-0.000000	0.000000	0.000000	0.000000	-43.202764	609.438316	-29.977929	0.963025	0.000000	-0.414771	0.000000	0.539412	0.000000
3.418750	0.000000	0.000000	0.000000	0.000000	0.000000	-0.000000	0.000000	0.000000	0.000000	-42.765505	608.791114	-30.039447	0.962024	0.000000	-0.414657	0.000000	0.537748	0.000000
3.419792	0.000000	0.000000	0.000000	0.000000	0.000000	-0.000000	0.000000	0.000000	0.000000	-42.329011	608.184814	-30.088613	0.961009	0.000000	-0.414542	0.000000	0.536379	0.000000
3.420833	0.000000	0.000000	0.000000	0.000000	0.000000	-0.000000	0.000000	0.000000	0.000000	-41.893628	607.619267	-30.125549	0.959980	0.000000	-0.414427	0.000000	0.535386	0.000000
3.421875	0.000000	0.000000	0.000000	0.000000	0.000000	-0.000000	0.000000	0.000000	0.000000	-41.459712	607.094193	-30.150491	0.958938	0.000000	-0.414313	0.000000	0.534852	0.000000
3.422917	0.000000	0.000000	0.000000	0.000000	0.000000	-0.000000	0.000000	0.000000	0.000000	-41.027623	606.609191	-30.163774	0.957885	0.000000	-0.414200	0.000000	0.534852	0.000000
3.423958	0.000000	0.000000	0.000000	-0.000000	-0.000000	0.000000	0.000000	0.000000	0.000000	-40.597715	606.163745	-30.165818	0.956822	0.000000	-0.414091	0.000000	0.535459	0.000000
3.425000	0.000000	0.000000	0.000000	-0.000000	-0.000000	0.000000	0.000000	0.000000	0.000000	-40.170330	605.757244	-30.157115	0.955751	0.000000	-0.413986	0.000000	0.536743	0.000000
3.426042	0.000000	0.000000	0.000000	-0.000000	-0.000000	0.000000	0.000000	0.000000	0.000000	-39.745794	605.388988	-30.138204	0.954673	0.000000	-0.413887	0.000000	0.538766	0.000000
3.427083	0.000000	0.000000	0.000000	-0.000000	-0.000000	0.000000	0.000000	0.000000	0.000000	-39.324405	605.058204	-30.109665	0.953589	0.000000	-0.413793	0.000000	0.541586	0.000000
3.428125	0.000000	0.000000	0.000000	-0.000000	-0.000000	0.000000	0.000000	0.000000	0.000000	-38.906430	604.764060	-30.072096	0.952502	0.000000	-0.413706	0.000000	0.545257	0.000000
3.429167	0.000000	0.000000	0.000000	-0.000000	-0.000000	0.000000	0.000000	0.000000	0.000000	-38.492102	604.505679	-30.026101	0.951413	0.000000	-0.413626	0.000000	0.549824	0.000000
3.430208	0.000000	0.000000	0.000000	-0.000000	-0.000000	0.000000	0.000000	0.000000	0.000000	-38.081614	604.282150	-29.972274	0.950323	0.000000	-0.413555	0.000000	0.555330	0.000000
3.431250	0.000000	0.000000	0.000000	-0.000000	-0.000000	0.000000	0.000000	0.000000	0.000000	-37.675116	604.092542	-29.911188	0.949233	0.000000	-0.413492	0.000000	0.561809	0.000000
3.432292	0.000000	0.000000	0.000000	-0.000000	-0.000000	0.000000	0.000000	0.000000	0.000000	-37.272713	603.935916	-29.843383	0.948143	0.000000	-0.413437	0.000000	0.569289	0.000000
3.433333	0.000000	0.000000	0.000000	-0.000000	-0.000000	0.000000	0.000000	0.000000	0.000000	-36.874465	603.811335	-29.769357	0.947056	0.000000	-0.413390	0.000000	0.577793	0.000000
